{
  "accessors": [
    {
      "bufferView": 2,
      "componentType": 5126,
      "count": 62197,
      "max": [
        5.0156750679016113,
        2.8077960014343262,
        13.946134567260742
      ],
      "min": [
        -4.9268498420715332,
        -2.238739013671875,
        0.11507099866867065
      ],
      "type": "VEC3"
    },
    {
      "bufferView": 2,
      "byteOffset": 746364,
      "componentType": 5126,
      "count": 62197,
      "max": [
        0.99999380111694336,
        0.9999241828918457,
        0.99976986646652222
      ],
      "min": [
        -0.99996334314346313,
        -0.99998873472213745,
        -0.99994921684265137
      ],
      "type": "VEC3"
    },
    {
      "bufferView": 3,
      "componentType": 5126,
      "count": 62197,
      "max": [
        0.99028974771499634,
        0.9999011754989624,
        0.99995237588882446,
        1
      ],
      "min": [
        -0.99983108043670654,
        -0.99998456239700317,
        -0.99997985363006592,
        -1
      ],
      "type": "VEC4"
    },
    {
      "bufferView": 1,
      "componentType": 5126,
      "count": 62197,
      "max": [
        0.99451297521591187,
        0.99590897560119629
      ],
      "min": [
        0.0033259999472647905,
        0.0038769999518990517
      ],
      "type": "VEC2"
    },
    {
      "bufferView": 0,
      "componentType": 5125,
      "count": 321672,
      "max": [
        62196
      ],
      "min": [
        0
      ],
      "type": "SCALAR"
    },
    {
      "bufferView": 2,
      "byteOffset": 1492728,
      "componentType": 5126,
      "count": 402,
      "max": [
        1.911221981048584,
        1.657336950302124,
        0.11507099866867065
      ],
      "min": [
        -1.5160729885101318,
        -1.8092399835586548,
        0.11507099866867065
      ],
      "type": "VEC3"
    },
    {
      "bufferView": 2,
      "byteOffset": 1497552,
      "componentType": 5126,
      "count": 402,
      "max": [
        0,
        0,
        1
      ],
      "min": [
        0,
        0,
        -1
      ],
      "type": "VEC3"
    },
    {
      "bufferView": 3,
      "byteOffset": 995152,
      "componentType": 5126,
      "count": 402,
      "max": [
        0,
        0,
        0,
        1
      ],
      "min": [
        0,
        0,
        0,
        1
      ],
      "type": "VEC4"
    },
    {
      "bufferView": 1,
      "byteOffset": 497576,
      "componentType": 5126,
      "count": 402,
      "max": [
        0,
        0
      ],
      "min": [
        0,
        0
      ],
      "type": "VEC2"
    },
    {
      "bufferView": 0,
      "byteOffset": 1286688,
      "componentType": 5125,
      "count": 1152,
      "max": [
        401
      ],
      "min": [
        0
      ],
      "type": "SCALAR"
    }
  ],
  "asset": {
    "extras": {
      "author": "Dragon22245 (https://sketchfab.com/Dragon22245)",
      "license": "CC-BY-4.0 (http://creativecommons.org/licenses/by/4.0/)",
      "source": "https://sketchfab.com/models/9866170380b64c12936050e87c66dd30",
      "title": "Colossal-marble-bust-of-zeus"
    },
    "generator": "Sketchfab-3.35.3",
    "version": "2.0"
  },
  "bufferViews": [
    {
      "buffer": 0,
      "byteLength": 1291296,
      "byteOffset": 0,
      "name": "floatBufferViews",
      "target": 34963
    },
    {
      "buffer": 0,
      "byteLength": 500792,
      "byteOffset": 1291296,
      "byteStride": 8,
      "name": "floatBufferViews",
      "target": 34962
    },
    {
      "buffer": 0,
      "byteLength": 1502376,
      "byteOffset": 1792088,
      "byteStride": 12,
      "name": "floatBufferViews",
      "target": 34962
    },
    {
      "buffer": 0,
      "byteLength": 1001584,
      "byteOffset": 3294464,
      "byteStride": 16,
      "name": "floatBufferViews",
      "target": 34962
    }
  ],
  "buffers": [
    {
      "byteLength": 4296048,
      "uri": "scene.bin"
    }
  ],
  "images": [
    {
      "uri": "textures/zeus-2_baseColor.jpeg"
    },
    {
      "uri": "textures/zeus-2_NONE_baseColor.jpeg"
    }
  ],
  "materials": [
    {
      "doubleSided": true,
      "emissiveFactor": [
        0,
        0,
        0
      ],
      "name": "zeus-2",
      "pbrMetallicRoughness": {
        "baseColorFactor": [
          1,
          1,
          1,
          1
        ],
        "baseColorTexture": {
          "index": 0,
          "texCoord": 0
        },
        "metallicFactor": 0,
        "roughnessFactor": 1
      }
    },
    {
      "doubleSided": true,
      "emissiveFactor": [
        0,
        0,
        0
      ],
      "name": "zeus-2_NONE",
      "pbrMetallicRoughness": {
        "baseColorFactor": [
          1,
          1,
          1,
          1
        ],
        "baseColorTexture": {
          "index": 1,
          "texCoord": 0
        },
        "metallicFactor": 0,
        "roughnessFactor": 1
      }
    }
  ],
  "meshes": [
    {
      "primitives": [
        {
          "attributes": {
            "NORMAL": 1,
            "POSITION": 0,
            "TANGENT": 2,
            "TEXCOORD_0": 3
          },
          "indices": 4,
          "material": 0,
          "mode": 4
        }
      ]
    },
    {
      "primitives": [
        {
          "attributes": {
            "NORMAL": 6,
            "POSITION": 5,
            "TANGENT": 7,
            "TEXCOORD_0": 8
          },
          "indices": 9,
          "material": 1,
          "mode": 4
        }
      ]
    }
  ],
  "nodes": [
    {
      "children": [
        1
      ],
      "name": "RootNode (gltf orientation matrix)",
      "rotation": [
        -0.70710678118654746,
        -0,
        -0,
        0.70710678118654757
      ]
    },
    {
      "children": [
        2
      ],
      "name": "RootNode (model correction matrix)"
    },
    {
      "children": [
        3,
        4
      ],
      "name": "zeus-2.obj.cleaner.materialmerger.gles"
    },
    {
      "mesh": 0,
      "name": ""
    },
    {
      "mesh": 1,
      "name": ""
    }
  ],
  "samplers": [
    {
      "magFilter": 9729,
      "minFilter": 9987,
      "wrapS": 10497,
      "wrapT": 10497
    }
  ],
  "scene": 0,
  "scenes": [
    {
      "name": "OSG_Scene",
      "nodes": [
        0
      ]
    }
  ],
  "textures": [
    {
      "sampler": 0,
      "source": 0
    },
    {
      "sampler": 0,
      "source": 1
    }
  ]
}

